<svg width="114" height="102" viewBox="0 0 114 102" fill="none" xmlns="http://www.w3.org/2000/svg">
<path fill-rule="evenodd" clip-rule="evenodd" d="M26.432 98.8426C8.07251 92.5014 3.97829 77.6765 3.50589 59.7834C3.39578 55.6152 3.48801 51.473 3.5971 47.3074C11.7017 45.8952 19.4627 43.2944 26.5786 39.0699C30.8685 41.6146 35.2149 43.4875 39.9509 44.9835C40.2805 45.0877 40.3464 45.4933 41.0383 45.4933C41.3732 45.4933 41.3032 45.3998 41.536 45.4661C44.3251 46.2611 46.6825 46.8053 49.5629 47.3074C49.8253 57.2556 50.0461 68.5455 47.1095 78.0542C43.7955 88.7845 37.1145 95.2552 26.7253 98.8426H26.432ZM41.4379 58.8161C41.2018 58.5753 40.8819 58.4401 40.5483 58.4401C40.2148 58.4402 39.8948 58.5755 39.6589 58.8164L23.511 75.3095L15.8828 67.5185C15.7661 67.3991 15.6274 67.3043 15.4748 67.2396C15.3222 67.1749 15.1586 67.1416 14.9934 67.1416C14.8282 67.1416 14.6645 67.1748 14.5119 67.2395C14.3593 67.3041 14.2206 67.3988 14.1038 67.5183C13.9868 67.6377 13.8939 67.7796 13.8305 67.9358C13.7672 68.092 13.7345 68.2594 13.7345 68.4285C13.7345 68.5975 13.7672 68.765 13.8305 68.9211C13.8939 69.0773 13.9868 69.2192 14.1038 69.3387L22.6208 78.0393C22.7378 78.159 22.8767 78.2539 23.0295 78.3187C23.1824 78.3834 23.3463 78.4168 23.5118 78.4168C23.6774 78.4168 23.8413 78.3834 23.9941 78.3187C24.147 78.2539 24.2859 78.159 24.4029 78.0393L41.4381 60.6352C41.5552 60.5159 41.6481 60.3741 41.7114 60.218C41.7748 60.0619 41.8074 59.8946 41.8074 59.7256C41.8074 59.5566 41.7747 59.3893 41.7113 59.2333C41.6479 59.0772 41.555 58.9354 41.4379 58.8161ZM49.9147 30.4408V17.8934C49.9157 17.6763 50.0006 17.4685 50.1508 17.315C50.3011 17.1615 50.5045 17.0749 50.717 17.0738H80.5964V30.4408H49.9147ZM83.1145 3.85957C83.1155 3.64254 83.2004 3.43468 83.3506 3.28121C83.5009 3.12774 83.7043 3.04107 83.9168 3.04004H98.1118C98.3242 3.04107 98.5277 3.12774 98.6779 3.28121C98.8281 3.43468 98.913 3.64254 98.914 3.85957V30.4408H83.1145V3.85957ZM22.6824 23.6256C22.6824 24.2967 22.1305 24.8328 21.605 25.1501C20.9147 25.5672 20.07 25.7593 19.2726 25.7593H6.38577C5.58889 25.7593 4.7445 25.5669 4.05468 25.1499C3.5294 24.8325 2.97754 24.2967 2.97754 23.6256V21.8475C2.97754 21.177 3.52965 20.6414 4.05468 20.3243C4.74476 19.9075 5.58889 19.7151 6.38577 19.7151L18.0547 19.7224C18.2737 19.7621 18.3312 19.8279 18.5823 19.8247L21.688 19.7999C22.0312 19.8918 22.5978 20.1865 22.6824 20.4715V23.6256Z" fill="#C4B5FD"/>
<path fill-rule="evenodd" clip-rule="evenodd" d="M41.7618 58.4857C41.9214 58.6485 42.048 58.8418 42.1344 59.0546C42.2208 59.2675 42.2653 59.4956 42.2653 59.726C42.2653 59.9564 42.2208 60.1845 42.1344 60.3973C42.048 60.6102 41.9214 60.8035 41.7618 60.9662L24.7265 78.3703C24.567 78.5333 24.3776 78.6626 24.1692 78.7508C23.9608 78.839 23.7374 78.8844 23.5118 78.8844C23.2862 78.8844 23.0628 78.839 22.8544 78.7508C22.6459 78.6626 22.4566 78.5333 22.2971 78.3703L13.7801 69.6697C13.6204 69.5068 13.4938 69.3134 13.4074 69.1005C13.321 68.8875 13.2765 68.6593 13.2765 68.4288C13.2765 68.1983 13.321 67.9701 13.4074 67.7571C13.4938 67.5442 13.6204 67.3508 13.7801 67.1879C14.4484 66.502 15.5366 66.502 16.2067 67.1879L23.5111 74.6482L39.3354 58.4857C40.005 57.8014 41.0931 57.8014 41.7618 58.4857ZM86.0914 57.4718V43.438C86.0914 42.4684 86.8612 41.6833 87.8091 41.6833C88.7569 41.6833 89.5252 42.4681 89.5252 43.438V57.4718C89.5252 58.4401 88.7569 59.2249 87.8091 59.2249C86.8612 59.2249 86.0914 58.4398 86.0914 57.4718ZM72.3538 57.4718V43.438C72.3538 42.9728 72.5347 42.5267 72.8566 42.1978C73.1786 41.8688 73.6153 41.6841 74.0707 41.6841C74.526 41.6841 74.9627 41.8688 75.2847 42.1978C75.6067 42.5267 75.7875 42.9728 75.7875 43.438V57.4718C75.7875 57.9367 75.6067 58.3826 75.2849 58.7114C74.9631 59.0402 74.5266 59.2249 74.0714 59.2249C73.846 59.225 73.6227 59.1797 73.4143 59.0917C73.206 59.0036 73.0167 58.8745 72.8572 58.7117C72.6977 58.5489 72.5711 58.3556 72.4848 58.1429C72.3984 57.9301 72.3539 57.7021 72.3538 57.4718ZM58.6161 57.4718V43.438C58.616 43.2076 58.6603 42.9795 58.7464 42.7667C58.8326 42.5538 58.959 42.3604 59.1184 42.1975C59.2777 42.0345 59.467 41.9052 59.6752 41.817C59.8835 41.7288 60.1068 41.6833 60.3322 41.6833C60.7878 41.6833 61.2246 41.8682 61.5467 42.1973C61.8688 42.5263 62.0498 42.9726 62.0499 43.438V57.4718C62.0496 57.9369 61.8684 58.3828 61.5463 58.7116C61.2242 59.0403 60.7875 59.2249 60.3322 59.2249C59.8771 59.2248 59.4407 59.0401 59.1188 58.7113C58.797 58.3826 58.6162 57.9367 58.6161 57.4718ZM93.7142 86.1809C93.7142 88.8579 91.5798 91.0383 88.9549 91.0383C86.3316 91.0383 84.1972 88.8579 84.1972 86.1809C84.1972 83.4994 86.3316 81.319 88.9549 81.319C91.5798 81.319 93.7142 83.4994 93.7142 86.1809ZM63.4449 86.1809C63.4449 88.8579 61.3105 91.0383 58.6871 91.0383C56.0653 91.0383 53.9294 88.8579 53.9294 86.1809C53.9294 83.4994 56.0651 81.319 58.6871 81.319C61.3105 81.319 63.4449 83.4994 63.4449 86.1809ZM26.5785 98.3995C37.0881 94.7706 43.4807 88.2503 46.6728 77.9133C49.5276 68.6701 49.3771 57.6325 49.1152 47.7037C46.9799 47.3306 44.8618 46.8607 42.7674 46.2951C42.3131 46.1737 41.8645 46.0453 41.413 45.9166C41.2901 45.9455 41.1644 45.9604 41.0382 45.961C40.5781 45.961 40.1366 45.7645 39.8154 45.4304C35 43.9093 30.4852 41.9286 26.5785 39.611C20.014 43.5069 11.9564 46.3246 4.04465 47.704C3.78431 57.6328 3.62922 68.6704 6.48559 77.9136C9.67921 88.2503 16.0718 94.7706 26.5785 98.3995ZM108.21 33.4822H38.9864L42.2566 42.5138C45.2323 43.3743 48.0235 44.0009 51.0455 44.4634C51.8674 44.5905 52.4867 45.3015 52.5084 46.15C52.6921 52.9377 52.8891 60.3049 52.1699 67.4254L89.8581 67.4283C93.354 67.4283 96.3174 65.4932 97.7862 62.2517L109.734 35.9223C109.856 35.661 109.91 35.3723 109.893 35.0835C109.875 34.7946 109.786 34.5151 109.634 34.2711C109.481 34.0271 109.271 33.8267 109.022 33.6887C108.773 33.5507 108.493 33.4797 108.21 33.4822ZM50.3728 17.8934C50.3728 17.7013 50.5307 17.5416 50.7172 17.5416H80.1385V29.9731H50.3728V17.8934ZM83.9167 3.5078H98.1117C98.2984 3.5078 98.4561 3.66753 98.4561 3.85962V29.9731H83.5723V3.85962C83.5723 3.66753 83.7299 3.5078 83.9167 3.5078ZM22.2245 20.6133V23.6257C22.2245 24.3959 20.9353 25.2916 19.2726 25.2916H6.3857C4.72451 25.2916 3.43531 24.3959 3.43531 23.6257V21.8475C3.43531 21.0789 4.72451 20.1831 6.3857 20.1831H17.9747C18.1208 20.2098 18.2182 20.2951 18.5881 20.2925L21.5717 20.2526C21.9307 20.3486 22.1609 20.5157 22.2245 20.6133ZM89.8581 70.9363C94.7257 70.9363 98.8554 68.2415 100.903 63.7286L112.851 37.398C114.427 33.9283 111.95 29.9731 108.21 29.9731H101.89V3.85962C101.89 1.73093 100.195 0 98.1117 0H83.9167C81.8329 0 80.1385 1.73093 80.1385 3.85962V14.0338H50.7172C48.6321 14.0338 46.939 15.7647 46.939 17.8934V29.9731H37.7186L34.9215 22.2497C33.6931 18.8544 30.6255 16.674 27.089 16.674C27.0527 16.674 27.0136 16.674 26.9776 16.6769L21.8783 16.7419C21.5948 16.698 21.3084 16.6752 21.0217 16.6738H6.3857C2.80578 16.6738 0 18.9473 0 21.8475V23.6257C0 26.5259 2.80578 28.7994 6.3857 28.7994H19.2726C22.8538 28.7994 25.658 26.5259 25.658 23.6257L25.6378 20.2009L27.0893 20.1831C29.2032 20.1831 30.9658 21.4367 31.7008 23.4662L38.1037 41.1571C34.2215 39.7469 30.6127 38.0249 27.4728 36.0721C27.2035 35.9046 26.8944 35.8161 26.5792 35.8161C26.264 35.8161 25.9548 35.9046 25.6856 36.0721C18.9343 40.2674 10.3882 43.1997 2.11417 44.4637C1.71538 44.5248 1.35033 44.7272 1.0829 45.0356C0.815458 45.3439 0.662663 45.7385 0.651242 46.1502C0.364839 56.725 0.042156 68.7103 3.21099 78.9688C6.77046 90.4926 14.2428 97.9988 26.0502 101.915C26.3949 102.028 26.766 102.028 27.1107 101.915C38.1164 98.2635 45.3529 91.4919 49.1686 81.2569C49.9241 81.3577 51.2276 81.319 52.0235 81.319C48.1651 86.836 52.0319 94.5458 58.6869 94.5458C65.3585 94.5458 69.2008 86.8107 65.3488 81.319H82.2928C78.4411 86.8101 82.2829 94.5458 88.9547 94.5458C95.6117 94.5458 99.4755 86.8349 95.6181 81.319H102.173C103.124 81.319 103.891 80.5342 103.891 79.5659C103.891 78.5976 103.124 77.8112 102.173 77.8112H50.2887C50.9139 75.5821 51.384 73.2806 51.7358 70.9348L89.8581 70.9363Z" fill="#8B5CF6"/>
</svg>
