<svg width="114" height="136" viewBox="0 0 114 136" fill="none" xmlns="http://www.w3.org/2000/svg">
<path d="M49.266 86.1704C48.7115 85.5417 47.9934 85.0906 47.1973 84.8708C46.4013 84.6509 45.5607 84.6715 44.7757 84.9302L37.0885 87.4545C36.668 87.5932 36.224 87.6398 35.785 87.5911C35.346 87.5424 34.9217 87.3996 34.5395 87.1718C34.1572 86.944 33.8253 86.6363 33.5653 86.2684C33.3052 85.9005 33.1226 85.4805 33.0293 85.0355L31.3047 76.91C31.1272 76.08 30.7231 75.3197 30.14 74.719C29.557 74.1183 28.8193 73.7022 28.0142 73.52L27.6511 73.4381L0 115.203L22.5226 113.653L28.7914 136L57.0411 93.3862C56.6 93.389 56.1634 93.2952 55.76 93.1112C55.3566 92.9272 54.9956 92.6571 54.7009 92.3186L49.266 86.1704Z" fill="#A78BFA"/>
<path d="M49.266 86.1703C48.8628 85.7115 48.3713 85.3445 47.8228 85.0927C47.2743 84.8409 46.6809 84.7098 46.0805 84.7078C45.6376 84.7076 45.1973 84.7786 44.7757 84.9184L37.0885 87.4426C36.6678 87.5814 36.2236 87.628 35.7844 87.5794C35.3453 87.5307 34.9208 87.3879 34.5383 87.1601C34.1558 86.9324 33.8237 86.6246 33.5634 86.2567C33.303 85.8888 33.1201 85.4688 33.0265 85.0237L32.1755 80.9931L9.38913 114.557L22.5197 113.653L26.1761 126.681L51.765 88.9987L49.266 86.1703ZM64.0617 86.1703C64.6162 85.5416 65.3342 85.0905 66.1303 84.8706C66.9264 84.6508 67.767 84.6714 68.552 84.9301L76.2392 87.4543C76.6597 87.5931 77.1037 87.6397 77.5427 87.591C77.9817 87.5423 78.4059 87.3995 78.7882 87.1717C79.1705 86.9439 79.5023 86.6362 79.7624 86.2682C80.0225 85.9003 80.205 85.4804 80.2983 85.0354L82.023 76.9099C82.2006 76.0803 82.6048 75.3205 83.1879 74.7202C83.771 74.12 84.5086 73.7045 85.3134 73.5228L85.6765 73.4409L113.333 115.203L90.8108 113.653L84.5419 136L56.2866 93.3861C56.7277 93.3889 57.1643 93.2951 57.5677 93.1111C57.9711 92.9271 58.332 92.6569 58.6268 92.3185L64.0617 86.1703Z" fill="#A78BFA"/>
<path d="M64.0618 86.1703C64.6163 85.5417 65.3344 85.0906 66.1304 84.8707C66.9265 84.6508 67.7671 84.6715 68.5521 84.9302L76.2393 87.4544C76.6598 87.5932 77.1038 87.6397 77.5428 87.5911C77.9818 87.5424 78.406 87.3996 78.7883 87.1717C79.1706 86.9439 79.5024 86.6362 79.7625 86.2683C80.0226 85.9004 80.2051 85.4804 80.2985 85.0355L81.1494 81.0049L103.933 114.557L90.7995 113.653L87.146 126.681L61.5627 88.9988L64.0618 86.1703Z" fill="#A78BFA"/>
<path d="M67.8341 89.7713L75.2093 92.1931C76.2693 92.5416 77.3882 92.6579 78.4944 92.5347C79.6005 92.4116 80.6696 92.0515 81.633 91.4777C82.5964 90.9039 83.433 90.1289 84.0892 89.2025C84.7454 88.276 85.2068 87.2185 85.4437 86.0975L87.0946 78.3055L88.6604 77.9545L85.6735 73.4413L85.3104 73.5232C84.5066 73.7059 83.7702 74.1218 83.1882 74.722C82.6061 75.3221 82.2028 76.0814 82.0256 76.9103L80.301 85.0358C80.2076 85.4808 80.0251 85.9007 79.765 86.2686C79.5049 86.6365 79.1731 86.9443 78.7908 87.1721C78.4085 87.3999 77.9843 87.5427 77.5453 87.5914C77.1063 87.64 76.6623 87.5935 76.2418 87.4547L68.5546 84.9305C67.7696 84.6718 66.929 84.6511 66.1329 84.871C65.3369 85.0909 64.6188 85.542 64.0643 86.1707L58.6294 92.313C58.3965 92.6211 58.0985 92.8704 57.7581 93.0419C57.4177 93.2133 57.0439 93.3024 56.665 93.3024C56.2862 93.3024 55.9124 93.2133 55.572 93.0419C55.2316 92.8704 54.9336 92.6211 54.7007 92.313L49.2686 86.1707C48.8654 85.7119 48.3739 85.3449 47.8254 85.093C47.2769 84.8412 46.6835 84.7102 46.0831 84.7082C45.6402 84.7079 45.1999 84.779 44.7783 84.9188L37.0911 87.443C36.6704 87.5818 36.2262 87.6284 35.7871 87.5797C35.3479 87.5311 34.9234 87.3883 34.5409 87.1605C34.1584 86.9327 33.8264 86.625 33.566 86.2571C33.3056 85.8892 33.1228 85.4692 33.0291 85.0241L31.3073 76.8986C31.1273 76.0709 30.7216 75.3135 30.1382 74.7155C29.5547 74.1175 28.8178 73.7038 28.014 73.5232L27.6537 73.4413L24.681 77.9399L26.3376 78.3113L27.9885 86.1034C28.226 87.2241 28.6879 88.2814 29.3446 89.2074C30.0013 90.1335 30.8382 90.9079 31.8019 91.4812C32.7656 92.0544 33.8348 92.4139 34.9409 92.5365C36.0471 92.6591 37.1659 92.5421 38.2257 92.1931L45.581 89.7508L50.8089 95.668C51.7072 96.6658 52.8321 97.4177 54.0823 97.8558L56.6636 93.9569L59.2676 97.8821C60.5501 97.4493 61.7048 96.6874 62.6233 95.668L67.8341 89.7713Z" fill="#7C3AED"/>
<path d="M49.2664 86.1704C48.8633 85.7117 48.3717 85.3446 47.8232 85.0928C47.2747 84.841 46.6813 84.7099 46.0809 84.708C45.638 84.7077 45.1978 84.7788 44.7761 84.9186L37.0889 87.4428C36.6682 87.5816 36.2241 87.6282 35.7849 87.5795C35.3457 87.5309 34.9213 87.3881 34.5388 87.1603C34.1563 86.9325 33.8242 86.6248 33.5638 86.2569C33.3035 85.8889 33.1206 85.469 33.0269 85.0239L32.1759 80.9933L9.38957 114.557L22.5202 113.653L26.1765 126.681L51.7655 88.9989L49.2664 86.1704ZM81.1554 81.005L80.3045 85.0356C80.2111 85.4806 80.0286 85.9005 79.7685 86.2684C79.5084 86.6363 79.1766 86.944 78.7943 87.1718C78.4121 87.3997 77.9878 87.5425 77.5488 87.5912C77.1098 87.6398 76.6658 87.5933 76.2453 87.4545L68.5581 84.9303C67.7731 84.6716 66.9325 84.6509 66.1364 84.8708C65.3404 85.0907 64.6223 85.5418 64.0678 86.1704L61.5687 88.9989L87.1577 126.681L90.8112 113.653L103.945 114.557L81.1554 81.005Z" fill="#8B5CF6"/>
<path d="M51.7654 88.9989L49.2664 86.1704C48.8632 85.7117 48.3717 85.3446 47.8232 85.0928C47.2747 84.841 46.6813 84.7099 46.0809 84.708C45.638 84.7077 45.1977 84.7788 44.7761 84.9186L37.0889 87.4428C36.6682 87.5816 36.224 87.6282 35.7849 87.5795C35.3457 87.5309 34.9212 87.3881 34.5387 87.1603C34.1562 86.9325 33.8242 86.6248 33.5638 86.2569C33.3034 85.8889 33.1206 85.469 33.0269 85.0239L32.1759 80.9933L28.2047 86.8432C28.8475 88.9216 30.2637 90.6522 32.1426 91.6552C34.0214 92.6581 36.2094 92.8515 38.2264 92.1929L45.5817 89.7506L48.7899 93.3834L51.7683 88.9959L51.7654 88.9989ZM75.2071 92.1929C77.2051 92.8492 79.3733 92.6693 81.2439 91.692C83.1145 90.7147 84.5375 89.0184 85.2061 86.9689L81.1554 81.005L80.3044 85.0356C80.2111 85.4805 80.0286 85.9005 79.7685 86.2684C79.5084 86.6363 79.1766 86.944 78.7943 87.1718C78.412 87.3997 77.9878 87.5425 77.5488 87.5912C77.1098 87.6398 76.6658 87.5933 76.2453 87.4545L68.5581 84.9303C67.7731 84.6716 66.9325 84.6509 66.1364 84.8708C65.3403 85.0907 64.6223 85.5418 64.0678 86.1704L61.5687 88.9989L64.584 93.4419L67.8348 89.7652L75.2071 92.1929Z" fill="#A78BFA"/>
<path d="M85.8609 19.8707L93.7438 21.6462C94.2519 21.7612 94.7311 21.9843 95.1509 22.3011C95.5707 22.6179 95.9218 23.0216 96.1818 23.4862C96.4418 23.9508 96.6049 24.4662 96.6609 24.9995C96.7168 25.5328 96.6643 26.0723 96.5066 26.5835L94.0587 34.5101C93.8417 35.2127 93.8247 35.9649 94.0097 36.6772C94.1947 37.3895 94.574 38.0322 95.1025 38.5289L101.059 44.1302C101.444 44.4915 101.752 44.9317 101.962 45.4225C102.172 45.9133 102.281 46.444 102.281 46.9806C102.281 47.5172 102.172 48.0479 101.962 48.5387C101.752 49.0295 101.444 49.4697 101.059 49.8309L95.1025 55.4351C94.5737 55.9317 94.1942 56.5744 94.0092 57.2868C93.8241 57.9992 93.8413 58.7514 94.0587 59.454L96.5066 67.3806C96.6643 67.8916 96.7168 68.4309 96.6608 68.964C96.6049 69.4972 96.4417 70.0124 96.1817 70.4768C95.9216 70.9411 95.5705 71.3445 95.1507 71.661C94.731 71.9775 94.2518 72.2003 93.7438 72.315L85.8609 74.0934C85.1621 74.251 84.5218 74.6119 84.016 75.1335C83.5102 75.6551 83.1601 76.3153 83.0073 77.0359L81.2826 85.1614C81.1721 85.6857 80.9566 86.1804 80.6498 86.6138C80.3431 87.0472 79.952 87.4098 79.5015 87.6783C79.0509 87.9468 78.551 88.1152 78.0337 88.1729C77.5164 88.2306 76.9931 88.1762 76.4973 88.0132L68.8101 85.489C68.1288 85.2641 67.3991 85.246 66.7081 85.4369C66.017 85.6277 65.3938 86.0194 64.9126 86.5654L59.4777 92.7077C59.1276 93.1044 58.701 93.4213 58.2252 93.6382C57.7495 93.855 57.235 93.967 56.7149 93.967C56.1947 93.967 55.6803 93.855 55.2045 93.6382C54.7288 93.4213 54.3022 93.1044 53.952 92.7077L48.5171 86.5654C48.036 86.0194 47.4127 85.6277 46.7217 85.4369C46.0307 85.246 45.301 85.2641 44.6196 85.489L36.9325 88.0132C36.4367 88.1762 35.9134 88.2306 35.3961 88.1729C34.8788 88.1152 34.3788 87.9468 33.9283 87.6783C33.4778 87.4098 33.0867 87.0472 32.7799 86.6138C32.4732 86.1804 32.2577 85.6857 32.1471 85.1614L30.4225 77.0359C30.2697 76.3153 29.9196 75.6551 29.4138 75.1335C28.908 74.6119 28.2677 74.251 27.5689 74.0934L19.686 72.315C19.178 72.2003 18.6988 71.9775 18.279 71.661C17.8592 71.3445 17.5081 70.9411 17.2481 70.4768C16.9881 70.0124 16.8249 69.4972 16.7689 68.964C16.713 68.4309 16.7655 67.8916 16.9231 67.3806L19.3711 59.454C19.5885 58.7514 19.6056 57.9992 19.4206 57.2868C19.2356 56.5744 18.8561 55.9317 18.3272 55.4351L12.3704 49.8309C11.9856 49.4697 11.6782 49.0295 11.4679 48.5387C11.2576 48.0479 11.1489 47.5172 11.1489 46.9806C11.1489 46.444 11.2576 45.9133 11.4679 45.4225C11.6782 44.9317 11.9856 44.4915 12.3704 44.1302L18.3272 38.5289C18.8558 38.0322 19.2351 37.3895 19.4201 36.6772C19.6051 35.9649 19.5881 35.2127 19.3711 34.5101L16.9231 26.5835C16.7655 26.0723 16.7129 25.5328 16.7689 24.9995C16.8248 24.4662 16.988 23.9508 17.248 23.4862C17.508 23.0216 17.8591 22.6179 18.2788 22.3011C18.6986 21.9843 19.1779 21.7612 19.686 21.6462L27.5689 19.8707C28.2677 19.7131 28.908 19.3521 29.4138 18.8306C29.9196 18.309 30.2697 17.6488 30.4225 16.9282L32.1471 8.79979C32.258 8.27575 32.4738 7.78136 32.7806 7.34827C33.0875 6.91519 33.4787 6.55296 33.9292 6.28477C34.3796 6.01659 34.8795 5.84836 35.3966 5.79087C35.9138 5.73337 36.4369 5.78788 36.9325 5.95089L44.6196 8.47512C45.3011 8.69851 46.0304 8.71586 46.7212 8.52509C47.4119 8.33433 48.0352 7.94345 48.5171 7.39874L53.952 1.25635C54.3026 0.86047 54.7294 0.54428 55.2051 0.327944C55.6808 0.111609 56.195 -0.00012207 56.7149 -0.00012207C57.2348 -0.00012207 57.749 0.111609 58.2247 0.327944C58.7004 0.54428 59.1271 0.86047 59.4777 1.25635L64.9126 7.39874C65.3946 7.94345 66.0179 8.33433 66.7086 8.52509C67.3994 8.71586 68.1286 8.69851 68.8101 8.47512L76.4973 5.95089C76.9929 5.78788 77.516 5.73337 78.0331 5.79087C78.5503 5.84836 79.0501 6.01659 79.5006 6.28477C79.9511 6.55296 80.3423 6.91519 80.6491 7.34827C80.956 7.78136 81.1718 8.27575 81.2826 8.79979L83.0073 16.9282C83.1601 17.6488 83.5102 18.309 84.016 18.8306C84.5218 19.3521 85.1621 19.7131 85.8609 19.8707Z" fill="#6D28D9"/>
<path d="M86.2444 46.9937C86.2382 52.6359 84.7119 58.1653 81.8356 62.9651C78.9594 67.765 74.8463 71.6463 69.9554 74.1761C65.0644 76.7059 59.588 77.7847 54.1371 77.292C48.6863 76.7994 43.4753 74.7547 39.0858 71.3862C34.6962 68.0176 31.3007 63.4576 29.278 58.2151C27.2553 52.9725 26.6851 47.2536 27.631 41.6963C28.5768 36.139 31.0015 30.9621 34.6345 26.743C38.2675 22.5239 42.966 19.4287 48.2056 17.8027C50.9648 16.9419 53.8327 16.5082 56.7154 16.5157C60.5955 16.5161 64.4375 17.3049 68.0218 18.8371C71.6061 20.3692 74.8624 22.6147 77.6047 25.4451C80.347 28.2756 82.5216 31.6355 84.004 35.3329C85.4864 39.0303 86.2477 42.9927 86.2444 46.9937Z" fill="#A78BFA"/>
<path d="M86.2437 46.9937C86.2465 52.1512 84.9776 57.2247 82.5561 61.7376C80.1346 66.2504 76.6402 70.0542 72.4011 72.7917C69.6419 73.6525 66.7741 74.0862 63.8914 74.0787C57.4776 74.0825 51.237 71.9336 46.1124 67.9566C40.9879 63.9797 37.2579 58.3909 35.4862 52.0347C33.7145 45.6786 33.9973 38.9005 36.2919 32.7247C38.5865 26.5489 42.7681 21.3111 48.205 17.8027C50.9642 16.9419 53.8321 16.5082 56.7148 16.5157C60.5949 16.5161 64.4368 17.3049 68.0211 18.8371C71.6054 20.3692 74.8618 22.6147 77.6041 25.4451C80.3464 28.2756 82.5209 31.6355 84.0034 35.3329C85.4858 39.0303 86.2471 42.9927 86.2437 46.9937Z" fill="#8B5CF6"/>
<path d="M58.8649 65.7807C58.3007 65.7807 57.7596 65.5496 57.3606 65.1382C56.9616 64.7268 56.7375 64.1688 56.7375 63.587V36.385L51.2515 40.2488C51.021 40.4178 50.7601 40.5377 50.484 40.6015C50.208 40.6653 49.9224 40.6717 49.644 40.6203C49.3655 40.5689 49.0998 40.4608 48.8624 40.3022C48.625 40.1437 48.4206 39.9379 48.2612 39.6969C48.1018 39.456 47.9906 39.1846 47.9342 38.8988C47.8777 38.613 47.8771 38.3185 47.9323 38.0324C47.9876 37.7464 48.0976 37.4745 48.256 37.2328C48.4143 36.9911 48.6178 36.7844 48.8546 36.6248L57.6651 30.4181C57.9848 30.1929 58.3582 30.0619 58.7448 30.0394C59.1314 30.0168 59.5167 30.1035 59.8591 30.2901C60.2015 30.4767 60.4879 30.7562 60.6877 31.0983C60.8874 31.4404 60.9927 31.8322 60.9924 32.2316V63.587C60.9924 64.1688 60.7682 64.7268 60.3693 65.1382C59.9703 65.5496 59.4292 65.7807 58.8649 65.7807Z" fill="#F5F3FF"/>
</svg>
