<svg width="114" height="114" viewBox="0 0 114 114" fill="none" xmlns="http://www.w3.org/2000/svg">
<path d="M56.4001 7.46781V7.82853H27.8844V7.46781L29.7809 0H54.5035L56.4001 7.46781Z" fill="#EDE9FE"/>
<path d="M0 7.46783H84.2869V113.333H0V7.46783Z" fill="#4C1D95"/>
<path d="M7.61597 14.8674H76.6603V105.948H7.61597V14.8674Z" fill="#C4B5FD"/>
<path d="M76.6604 14.8674V100.367H28.4601C26.8981 100.367 25.3514 100.069 23.9084 99.4893C22.4654 98.9099 21.1543 98.0606 20.0502 96.99C18.946 95.9194 18.0704 94.6485 17.4733 93.2498C16.8763 91.8512 16.5694 90.3523 16.5704 88.8387V14.8674H76.6604Z" fill="#A78BFA"/>
<path d="M17.0333 23.8026C16.4747 23.8026 15.939 24.0174 15.5438 24.3999C15.1485 24.7824 14.9262 25.3013 14.9255 25.8426V36.2887C14.9262 36.83 15.1485 37.3489 15.5438 37.7314C15.939 38.1139 16.4747 38.3287 17.0333 38.3287H27.8138C28.3721 38.3287 28.9076 38.1138 29.3024 37.7312C29.6973 37.3486 29.9191 36.8298 29.9191 36.2887V26.0229C29.9191 25.7311 29.8597 25.4422 29.7444 25.1727C29.6291 24.9031 29.4601 24.6582 29.247 24.452C29.034 24.2458 28.7811 24.0823 28.5028 23.9709C28.2245 23.8594 27.9263 23.8022 27.6251 23.8026H17.0333ZM17.0333 52.8403C16.4743 52.8403 15.9382 53.0554 15.5429 53.4385C15.1476 53.8215 14.9255 54.341 14.9255 54.8827V65.3289C14.9262 65.8701 15.1485 66.389 15.5438 66.7715C15.939 67.154 16.4747 67.3689 17.0333 67.3689H27.8138C28.3721 67.3689 28.9076 67.1539 29.3024 66.7714C29.6973 66.3888 29.9191 65.8699 29.9191 65.3289V55.0631C29.9191 54.4735 29.6774 53.9082 29.2472 53.4913C28.817 53.0744 28.2335 52.8403 27.6251 52.8403H17.0333ZM17.0333 81.4588C16.7566 81.4584 16.4826 81.511 16.2269 81.6133C15.9712 81.7157 15.7388 81.8659 15.543 82.0554C15.3473 82.2449 15.192 82.4698 15.086 82.7175C14.98 82.9652 14.9255 83.2306 14.9255 83.4987V93.9571C14.9262 94.4984 15.1485 95.0172 15.5438 95.3998C15.939 95.7823 16.4747 95.9971 17.0333 95.9971H27.8138C28.3721 95.9971 28.9076 95.7822 29.3024 95.3996C29.6973 95.017 29.9191 94.4981 29.9191 93.9571V83.6791C29.9191 83.3873 29.8597 83.0984 29.7444 82.8289C29.6291 82.5593 29.4601 82.3144 29.247 82.1082C29.034 81.902 28.7811 81.7385 28.5028 81.6271C28.2245 81.5156 27.9263 81.4584 27.6251 81.4588H17.0333Z" fill="#6D28D9"/>
<path d="M67.8367 32.8276H52.9639C52.4636 32.8276 51.9838 32.635 51.63 32.2922C51.2762 31.9494 51.0774 31.4844 51.0774 30.9996C51.0774 30.5148 51.2762 30.0499 51.63 29.707C51.9838 29.3642 52.4636 29.1716 52.9639 29.1716H67.8367C68.3371 29.1716 68.8169 29.3642 69.1707 29.707C69.5244 30.0499 69.7232 30.5148 69.7232 30.9996C69.7232 31.4844 69.5244 31.9494 69.1707 32.2922C68.8169 32.635 68.3371 32.8276 67.8367 32.8276ZM45.3476 32.8276H37.7012C37.2009 32.8276 36.7211 32.635 36.3673 32.2922C36.0135 31.9494 35.8147 31.4844 35.8147 30.9996C35.8147 30.5148 36.0135 30.0499 36.3673 29.707C36.7211 29.3642 37.2009 29.1716 37.7012 29.1716H45.3476C45.848 29.1716 46.3278 29.3642 46.6816 29.707C47.0354 30.0499 47.2341 30.5148 47.2341 30.9996C47.2341 31.4844 47.0354 31.9494 46.6816 32.2922C46.3278 32.635 45.848 32.8276 45.3476 32.8276ZM67.8367 61.1317H60.467C59.9667 61.1317 59.4868 60.9391 59.133 60.5963C58.7793 60.2534 58.5805 59.7885 58.5805 59.3037C58.5805 58.8189 58.7793 58.3539 59.133 58.0111C59.4868 57.6683 59.9667 57.4757 60.467 57.4757H67.8367C68.3371 57.4757 68.8169 57.6683 69.1707 58.0111C69.5244 58.3539 69.7232 58.8189 69.7232 59.3037C69.7232 59.7885 69.5244 60.2534 69.1707 60.5963C68.8169 60.9391 68.3371 61.1317 67.8367 61.1317ZM52.7878 61.1317H37.6962C37.1959 61.1317 36.716 60.9391 36.3622 60.5963C36.0085 60.2534 35.8097 59.7885 35.8097 59.3037C35.8097 58.8189 36.0085 58.3539 36.3622 58.0111C36.716 57.6683 37.1959 57.4757 37.6962 57.4757H52.7878C53.2882 57.4757 53.768 57.6683 54.1218 58.0111C54.4755 58.3539 54.6743 58.8189 54.6743 59.3037C54.6743 59.7885 54.4755 60.2534 54.1218 60.5963C53.768 60.9391 53.2882 61.1317 52.7878 61.1317ZM23.7163 34.2656H23.6433C23.3936 34.2558 23.1484 34.1982 22.9217 34.0961C22.6951 33.994 22.4915 33.8495 22.3228 33.6709L19.9861 31.1848C19.8193 31.0077 19.6901 30.8004 19.606 30.5749C19.5219 30.3494 19.4844 30.11 19.4957 29.8704C19.507 29.6309 19.5669 29.3958 19.672 29.1787C19.7771 28.9616 19.9253 28.7666 20.1081 28.605C20.2909 28.4433 20.5048 28.3182 20.7376 28.2367C20.9703 28.1551 21.2173 28.1188 21.4646 28.1298C21.7118 28.1408 21.9544 28.1988 22.1785 28.3006C22.4025 28.4024 22.6037 28.546 22.7705 28.7232L23.8219 29.837L33.6919 20.8703C34.0564 20.539 34.5419 20.3616 35.0414 20.3772C35.5409 20.3927 36.0136 20.5999 36.3555 20.9532C36.6974 21.3064 36.8805 21.7768 36.8644 22.2609C36.8484 22.7449 36.6346 23.2029 36.27 23.5342L25.0066 33.7708C24.6574 34.0892 24.1958 34.2662 23.7163 34.2656ZM23.7163 63.3033H23.6433C23.3936 63.2935 23.1484 63.2359 22.9217 63.1338C22.6951 63.0317 22.4915 62.8872 22.3228 62.7086L19.9861 60.2225C19.8193 60.0454 19.6901 59.8381 19.606 59.6126C19.5219 59.3871 19.4844 59.1477 19.4957 58.9081C19.507 58.6686 19.5669 58.4335 19.672 58.2164C19.7771 57.9993 19.9253 57.8043 20.1081 57.6427C20.2909 57.4811 20.5048 57.3559 20.7376 57.2744C20.9703 57.1928 21.2173 57.1565 21.4646 57.1675C21.7118 57.1785 21.9544 57.2365 22.1785 57.3383C22.4025 57.4402 22.6037 57.5837 22.7705 57.7609L23.8219 58.8747L33.6919 49.908C34.0564 49.5767 34.5419 49.3993 35.0414 49.4149C35.5409 49.4304 36.0136 49.6376 36.3555 49.9909C36.6974 50.3441 36.8805 50.8145 36.8644 51.2986C36.8484 51.7826 36.6346 52.2407 36.27 52.5719L25.0066 62.8085C24.6575 63.1271 24.1958 63.3042 23.7163 63.3033ZM23.7163 91.9193H23.6433C23.3936 91.9095 23.1484 91.8519 22.9217 91.7499C22.6951 91.6478 22.4915 91.5033 22.3228 91.3246L19.9786 88.8386C19.8019 88.6632 19.6635 88.4551 19.5716 88.2267C19.4796 87.9984 19.436 87.7545 19.4433 87.5095C19.4506 87.2645 19.5087 87.0234 19.6141 86.8006C19.7195 86.5777 19.87 86.3777 20.0568 86.2124C20.2436 86.0472 20.4628 85.92 20.7013 85.8384C20.9398 85.7568 21.1929 85.7226 21.4453 85.7377C21.6978 85.7529 21.9446 85.817 22.1709 85.9264C22.3973 86.0358 22.5986 86.1882 22.763 86.3745L23.8144 87.4884L33.6843 78.5192C34.0524 78.2068 34.5315 78.0452 35.0202 78.0686C35.509 78.092 35.9692 78.2985 36.3038 78.6445C36.6384 78.9906 36.8211 79.449 36.8134 79.9231C36.8057 80.3973 36.6081 80.8499 36.2625 81.1856L24.9991 91.4221C24.6523 91.7399 24.1936 91.9177 23.7163 91.9193ZM68.3297 90.4935H53.4594C52.9591 90.4935 52.4793 90.3009 52.1255 89.9581C51.7717 89.6153 51.573 89.1504 51.573 88.6656C51.573 88.1808 51.7717 87.7158 52.1255 87.373C52.4793 87.0302 52.9591 86.8376 53.4594 86.8376H68.3297C68.83 86.8376 69.3099 87.0302 69.6637 87.373C70.0174 87.7158 70.2162 88.1808 70.2162 88.6656C70.2162 89.1504 70.0174 89.6153 69.6637 89.9581C69.3099 90.3009 68.83 90.4935 68.3297 90.4935ZM45.8331 90.4935H38.1942C37.6939 90.4935 37.214 90.3009 36.8603 89.9581C36.5065 89.6153 36.3077 89.1504 36.3077 88.6656C36.3077 88.1808 36.5065 87.7158 36.8603 87.373C37.214 87.0302 37.6939 86.8376 38.1942 86.8376H45.8331C46.3334 86.8376 46.8132 87.0302 47.167 87.373C47.5208 87.7158 47.7196 88.1808 47.7196 88.6656C47.7196 89.1504 47.5208 89.6153 47.167 89.9581C46.8132 90.3009 46.3334 90.4935 45.8331 90.4935Z" fill="#EDE9FE"/>
<path d="M113.334 50.2567C113.334 50.7415 113.135 51.2065 112.781 51.5493C112.427 51.8921 111.947 52.0847 111.447 52.0847C110.947 52.0847 110.467 51.8921 110.113 51.5493C109.759 51.2065 109.561 50.7415 109.561 50.2567V33.537C109.435 33.1227 108.932 32.1478 106.718 32.1478H104.822V28.8087C104.826 28.7025 104.818 28.5962 104.797 28.4919H106.721C108.223 28.3184 109.737 28.7019 110.959 29.5653C112.182 30.4288 113.022 31.7083 113.311 33.1471L113.334 50.2567ZM104.958 94.5664L99.248 113.333L93.5132 94.5664H104.958Z" fill="#6D28D9"/>
<path d="M93.5132 50.2567H104.958V94.5664H93.5132V50.2567Z" fill="#C4B5FD"/>
<path d="M104.96 28.8085V50.2565H93.5152V28.8085C93.5152 27.3379 94.1181 25.9276 95.1913 24.8877C96.2644 23.8479 97.7199 23.2637 99.2375 23.2637C100.755 23.2637 102.211 23.8479 103.284 24.8877C104.357 25.9276 104.96 27.3379 104.96 28.8085Z" fill="#6D28D9"/>
<path d="M104.957 94.5664L99.2476 113.333V94.5664H104.957Z" fill="#7C3AED"/>
<path d="M99.2476 50.2567H104.957V94.5664H99.2476V50.2567Z" fill="#A78BFA"/>
<path d="M104.96 28.8088V50.2568H99.2504V23.2762C100.707 23.2754 102.108 23.8158 103.166 24.7861C104.223 25.7564 104.856 27.0828 104.935 28.492C104.956 28.5963 104.964 28.7026 104.96 28.8088Z" fill="#7C3AED"/>
</svg>
