<svg width="114" height="114" viewBox="0 0 114 114" fill="none" xmlns="http://www.w3.org/2000/svg">
<path d="M53.3155 0L0 26.9514V88.8631L60.7321 113.333H60.7565V113.321L113.333 82.3629V20.4609L53.3155 0Z" fill="#DDD6FE"/>
<path d="M113.333 20.4609L53.3155 0L0 26.9514V88.8631L60.7321 113.333H60.7565V51.4022L60.7443 51.3973L113.333 20.4609Z" fill="#C4B5FD"/>
<path d="M60.7565 51.4021V113.333H60.7321L0 88.8631V26.9562L7.14352 29.8322L60.7565 51.4021Z" fill="#8B5CF6"/>
<path d="M60.7565 51.4021V104.827L20.8015 88.7168C16.7683 87.089 13.3136 84.2935 10.8809 80.689C8.44819 77.0845 7.14841 72.8356 7.14838 68.4874V29.8322L60.7565 51.4021Z" fill="#A78BFA"/>
<path d="M87.7951 11.7476L86.7223 12.3325L34.8404 40.9705L34.7428 60.8831L26.5266 57.8121L21.1628 55.7892V35.4867L75.2391 7.48236L87.7951 11.7476Z" fill="#5B21B6"/>
<path d="M86.7825 12.3326L34.9005 40.9706L34.803 60.8831L26.5867 57.8122V38.2652L80.6873 10.2609L86.7825 12.3326Z" fill="#6D28D9"/>
</svg>
