<svg width="114" height="102" viewBox="0 0 114 102" fill="none" xmlns="http://www.w3.org/2000/svg">
<path d="M76.3809 93.0997V102H36.9475V93.0997H46.355L48.0123 78.0523L48.4022 74.4684V74.3972H64.9019L64.9262 74.4684L65.3162 78.0523L66.9735 93.0997H76.3809Z" fill="#8B5CF6"/>
<path d="M65.3164 78.0523H48.0125L48.4024 74.4684V74.3972H64.902L64.9264 74.4684L65.3164 78.0523Z" fill="#7C3AED"/>
<path d="M66.9637 93.0925H36.9426V101.99H76.3858V93.0925H66.9637Z" fill="#A78BFA"/>
<path d="M109.307 0H4.02133C2.95391 0.00251391 1.93109 0.417216 1.17723 1.15314C0.42336 1.88907 -3.12143e-06 2.88613 0 3.92563V70.538C-3.12143e-06 71.5775 0.42336 72.5745 1.17723 73.3105C1.93109 74.0464 2.95391 74.4611 4.02133 74.4636H109.063C109.624 74.4639 110.18 74.3566 110.698 74.1477C111.216 73.9389 111.687 73.6326 112.083 73.2464C112.48 72.8602 112.794 72.4017 113.009 71.897C113.223 71.3924 113.334 70.8515 113.333 70.3054V3.92563C113.333 2.88531 112.909 1.88753 112.154 1.15147C111.399 0.415405 110.375 0.00125795 109.307 0Z" fill="#C4B5FD"/>
<path d="M7.48212 6.80249H105.846V60.9876H7.48212V6.80249Z" fill="#4C1D95"/>
<path d="M105.846 6.80249V56.0509H29.5627C25.698 56.049 21.9921 54.5531 19.2593 51.8918C16.5265 49.2305 14.9904 45.6215 14.9885 41.8579V6.80249H105.846Z" fill="#6D28D9"/>
<path d="M90.9795 44.9194C91.0106 44.8434 91.0516 44.7716 91.1014 44.7058V44.682C91.7876 43.5421 92.3434 42.3324 92.7586 41.0744C93.8892 37.5517 93.8674 33.7737 92.6962 30.2636C91.525 26.7534 89.2624 23.6845 86.2214 21.4817C83.1805 19.2789 79.5116 18.0511 75.7226 17.9682C71.9336 17.8853 68.2118 18.9515 65.0724 21.0191C62.9041 22.436 61.082 24.2995 59.735 26.4779C58.4876 28.474 57.6564 30.6899 57.2887 32.999C56.9211 35.3081 57.0243 37.6651 57.5923 39.9354C58.1604 42.2056 59.1823 44.3446 60.5996 46.2301C62.0169 48.1156 63.8017 49.7106 65.8523 50.9241C68.7679 52.5843 72.0775 53.4759 75.4547 53.5111C77.3645 53.5251 79.2619 53.2118 81.0602 52.5855C82.3394 52.1308 83.5783 51.5752 84.7647 50.9241L84.7891 50.9479L90.029 56.0507H102.385C97.0724 50.9004 90.9795 44.9431 90.9795 44.9194Z" fill="#4C1D95"/>
<path d="M111.208 67.6139C111.022 68.3545 110.625 69.029 110.063 69.5601C109.242 70.35 108.134 70.793 106.98 70.793C105.826 70.793 104.718 70.35 103.897 69.5601L95.0986 60.9921H105.847V59.4493L110.063 63.5554C110.607 64.0716 111 64.7198 111.201 65.4332C111.403 66.1466 111.405 66.8993 111.208 67.6139Z" fill="#DDD6FE"/>
<path d="M105.846 59.4446V60.9874H95.0986L90.0292 56.0507H102.386C103.604 57.2374 104.798 58.4003 105.846 59.4446Z" fill="#5B21B6"/>
<path d="M112.049 61.7376L92.9464 43.1348C95.252 39.4188 96.081 35.0095 95.2767 30.7391C94.4724 26.4687 92.0906 22.6329 88.5809 19.9557C85.0711 17.2785 80.6764 15.9452 76.2263 16.2075C71.7762 16.4699 67.5788 18.3097 64.4263 21.3797C61.2739 24.4497 59.3846 28.5374 59.1152 32.871C58.8458 37.2047 60.2149 41.4845 62.964 44.9024C65.7131 48.3203 69.652 50.6398 74.0371 51.4231C78.4222 52.2063 82.95 51.3991 86.7657 49.1538L105.868 67.759C106.688 68.5567 107.8 69.0048 108.959 69.0048C110.118 69.0048 111.229 68.5567 112.049 67.759C112.869 66.9605 113.329 65.8775 113.329 64.7483C113.329 63.6191 112.869 62.5361 112.049 61.7376Z" fill="#A78BFA"/>
<path d="M77.3121 51.7098C87.3991 51.7098 95.5763 43.7465 95.5763 33.9234C95.5763 24.1002 87.3991 16.137 77.3121 16.137C67.2251 16.137 59.048 24.1002 59.048 33.9234C59.048 43.7465 67.2251 51.7098 77.3121 51.7098Z" fill="#8B5CF6"/>
<path d="M112.049 61.7373L92.9318 43.1155C92.1666 44.3401 91.2561 45.4729 90.2192 46.4905C89.718 46.9772 89.1882 47.4352 88.6326 47.8623L106.87 65.6179C107.689 66.4154 108.801 66.8635 109.959 66.8635C111.118 66.8635 112.229 66.4154 113.048 65.6179L113.277 65.3805C113.38 64.722 113.323 64.0491 113.109 63.4163C112.896 62.7834 112.533 62.2083 112.049 61.7373Z" fill="#C4B5FD"/>
<path d="M77.312 16.137C72.9597 16.1326 68.7502 17.6484 65.4478 20.4091C63.1361 24.0121 62.2249 28.3019 62.8794 32.5024C63.5338 36.7028 65.7105 40.5364 69.0157 43.3094C72.3209 46.0824 76.5362 47.6117 80.8988 47.6206C85.2614 47.6295 89.4832 46.1173 92.8002 43.3577C94.5302 40.6652 95.4882 37.5707 95.5748 34.3957C95.6614 31.2206 94.8734 28.081 93.2927 25.3028C91.712 22.5247 89.3962 20.2094 86.5859 18.5975C83.7756 16.9857 80.5734 16.1361 77.312 16.137Z" fill="#C4B5FD"/>
</svg>
