<?xml version="1.0" encoding="UTF-8"?>
<svg id="Layer_1" xmlns="http://www.w3.org/2000/svg" version="1.1" viewBox="0 0 31.88 32">
  <!-- Generator: Adobe Illustrator 30.1.0, SVG Export Plug-In . SVG Version: 2.1.1 Build 136)  -->
  <defs>
    <style>
      .st0 {
        fill: #5b5b5b;
      }

      .st1 {
        fill: #ccc;
      }
    </style>
  </defs>
  <path class="st1" d="M31.77,4.72l-14.97,26.78c-.31.55-1.1.56-1.42,0L.11,4.73c-.34-.6.17-1.33.85-1.2l14.99,2.68c.1.02.19.02.29,0l14.68-2.67c.68-.12,1.19.6.86,1.2Z"/>
  <path class="st0" d="M23.09,0l-11.08,2.17c-.18.04-.32.19-.33.38l-.68,11.51c-.01.22.16.42.38.43.04,0,.08,0,.12,0l3.09-.71c.29-.07.55.19.49.48l-.92,4.49c-.06.3.22.56.52.47l1.91-.58c.3-.09.58.17.52.47l-1.46,7.05c-.09.44.5.68.74.3l.16-.25,9.03-18.02c.15-.3-.11-.65-.44-.58l-3.18.61c-.3.06-.55-.22-.47-.51l2.07-7.19c.08-.29-.17-.57-.47-.51h0Z"/>
</svg>